<svg id="Layer_1" enable-background="new 0 0 512 512" height="512" viewBox="0 0 512 512" width="512" xmlns="http://www.w3.org/2000/svg"><g><path d="m238.377 364.516-90.893-90.892c-5.858-5.858-15.356-5.858-21.214.001l-.001-.001-121.875 121.888c-3.676 3.676-5.187 8.993-3.992 14.053 1.194 5.06 4.924 9.14 9.855 10.784l61.048 20.347 20.347 61.048c1.644 4.932 5.724 8.661 10.784 9.855s10.377-.316 14.053-3.992l121.888-121.877c5.858-5.858 5.858-15.356 0-21.214z" fill="#ffec29"/><path d="m238.377 364.516-45.446-45.446-121.626 121.625 20.347 61.048c1.644 4.932 5.724 8.661 10.784 9.855s10.377-.316 14.053-3.992l121.888-121.877c5.858-5.857 5.858-15.355 0-21.213z" fill="#ffcb00"/><path d="m364.516 273.623-90.892 90.893c-5.858 5.858-5.858 15.356.001 21.214l-.001.001 121.889 121.876c3.676 3.676 8.993 5.187 14.053 3.992 5.06-1.194 9.14-4.924 10.784-9.855l20.347-61.048 61.048-20.347c4.932-1.644 8.661-5.724 9.855-10.784s-.316-10.377-3.992-14.053l-121.879-121.888c-5.857-5.859-15.355-5.859-21.213-.001z" fill="#ffec29"/><path d="m364.516 273.623-45.446 45.446 121.626 121.626 61.048-20.347c4.932-1.644 8.661-5.724 9.855-10.784s-.316-10.377-3.992-14.053l-121.878-121.887c-5.857-5.859-15.355-5.859-21.213-.001z" fill="#ffcb00"/><path d="m460.18 217.571c4.823-5.619 4.824-13.918.002-19.538l-17.055-19.875 10.076-24.168c2.85-6.836.285-14.728-6.039-18.582l-22.359-13.626 2.12-26.094c.6-7.382-4.279-14.097-11.484-15.809l-25.471-6.049-6.051-25.479c-1.711-7.207-8.44-12.082-15.807-11.485l-26.101 2.12-13.627-22.361c-3.854-6.326-11.751-8.887-18.584-6.038l-24.164 10.082-19.867-17.052c-5.619-4.823-13.92-4.823-19.539 0l-19.866 17.051-24.164-10.082c-6.837-2.851-14.729-.287-18.584 6.038l-13.626 22.362-26.101-2.12c-7.382-.591-14.096 4.278-15.807 11.485l-6.051 25.479-25.472 6.05c-7.205 1.712-12.084 8.427-11.484 15.809l2.12 26.094-22.359 13.626c-6.324 3.854-8.889 11.746-6.039 18.582l10.076 24.168-17.055 19.875c-4.822 5.62-4.821 13.919.002 19.538l17.052 19.868-10.074 24.166c-2.85 6.836-.285 14.728 6.039 18.582l22.359 13.626-2.12 26.094c-.6 7.382 4.279 14.097 11.484 15.809l25.471 6.049 6.051 25.479c1.712 7.207 8.426 12.076 15.807 11.485l26.101-2.12 13.627 22.361c3.854 6.325 11.747 8.889 18.584 6.038l24.164-10.082 19.866 17.051c5.619 4.823 13.92 4.823 19.539 0l19.866-17.051 24.164 10.082c6.833 2.849 14.729.288 18.584-6.038l13.627-22.361 26.101 2.12c7.367.597 14.097-4.278 15.807-11.485l6.051-25.479 25.471-6.049c7.205-1.712 12.084-8.427 11.484-15.809l-2.12-26.094 22.359-13.626c6.324-3.854 8.889-11.746 6.039-18.582l-10.076-24.166z" fill="#5abeff"/><path d="m265.77 411.978 19.866-17.051 24.164 10.082c6.833 2.849 14.729.288 18.584-6.038l13.627-22.36 26.101 2.12c7.367.597 14.097-4.278 15.807-11.485l6.051-25.479 25.471-6.049c7.205-1.712 12.084-8.427 11.484-15.809l-2.12-26.094 22.359-13.626c6.324-3.854 8.889-11.746 6.039-18.582l-10.076-24.166 17.052-19.868c4.823-5.619 4.824-13.918.002-19.538l-17.054-19.875 10.076-24.168c2.85-6.835.285-14.728-6.039-18.582l-22.359-13.626 2.12-26.094c.599-7.382-4.279-14.097-11.484-15.809l-25.471-6.049-6.051-25.479c-1.711-7.207-8.44-12.082-15.807-11.485l-26.101 2.12-13.627-22.36c-3.854-6.326-11.751-8.887-18.584-6.038l-24.164 10.082-19.867-17.055c-2.809-2.411-6.289-3.617-9.769-3.617v415.595c3.48 0 6.961-1.206 9.77-3.617z" fill="#469be6"/><path d="m229.327 314.807-88.367-88.367c-5.858-5.857-5.858-15.355 0-21.213l45.444-45.445c5.857-5.858 15.355-5.858 21.213 0l32.316 32.315 72.482-72.482c5.857-5.858 15.355-5.858 21.213 0l45.444 45.444c5.858 5.858 5.858 15.355 0 21.213l-128.532 128.535c-5.858 5.859-15.357 5.857-21.213 0z" fill="#f5fafa"/><path d="m379.073 165.06-45.444-45.444c-5.857-5.858-15.355-5.858-21.213 0l-56.416 56.415v133.315l123.073-123.074c5.859-5.857 5.859-15.354 0-21.212z" fill="#e1ebf0"/></g></svg>